<svg enable-background="new 0 0 512 512" viewBox="0 0 512 512" xmlns="http://www.w3.org/2000/svg"><path d="m147.46 182.321-61.714-56.274 418.772-70.461-209.386 112.408z" fill="#4fc2f8"/><path d="m191.541 350.931-44.081-168.61 357.058-126.735-196.162 192.856z" fill="#029ae6"/><path d="m216.887 240.728-25.346 110.203 80.448-55.102-4.408-55.101z" fill="#0289cc"/><path d="m216.887 240.728 93.673 93.672 193.958-278.814z" fill="#4fc2f8"/><path d="m173.941 374.458c-.043.046-4.385 4.669-12.168 11.609-3.093 2.757-3.364 7.499-.606 10.591 2.673 2.999 7.511 3.353 10.591.607 8.285-7.388 12.944-12.35 13.139-12.557 2.83-3.025 2.673-7.772-.352-10.603-3.029-2.83-7.775-2.67-10.604.353z"/><path d="m56.483 459.985c.548 0 1.104-.061 1.661-.187 10.322-2.333 20.902-5.698 31.448-9.999 3.836-1.564 5.678-5.942 4.114-9.779s-5.942-5.677-9.779-4.113c-9.785 3.991-19.572 7.105-29.092 9.258-4.041.913-6.576 4.93-5.662 8.971.788 3.484 3.882 5.849 7.31 5.849z"/><path d="m137.592 405.524c-8.554 6.204-17.303 11.869-26.005 16.837-3.599 2.054-4.85 6.636-2.795 10.234 2.026 3.549 6.689 4.82 10.234 2.796 9.173-5.236 18.383-11.199 27.376-17.721 3.354-2.432 4.101-7.123 1.667-10.477-2.432-3.355-7.122-4.102-10.477-1.669z"/><path d="m6.693 463.081c5.151.558 10.419.84 15.697.84 4.919 0 10.2-1.686 10.09-7.663-.076-4.143-3.504-7.431-7.638-7.361-5.56.103-11.12-.144-16.531-.73-4.118-.445-7.819 2.53-8.266 6.649-.447 4.117 2.53 7.819 6.648 8.265z"/><path d="m511.976 54.981c-.129-1.644-.791-3.274-1.939-4.471-1.709-1.782-4.267-2.77-6.731-2.325-.011.002-.021.002-.032.004l-418.773 70.46c-2.83.476-5.141 2.525-5.951 5.279-.81 2.752.021 5.728 2.142 7.661l60.072 54.777 43.521 166.462c.688 2.63 2.806 4.764 5.477 5.371 1.974.448 4 .158 5.727-.91.096-.06.199-.104.293-.169l75.308-51.581 34.167 34.166c1.413 1.413 3.324 2.197 5.305 2.197.221 0 .443-.01.665-.03 2.212-.197 4.225-1.364 5.493-3.189l193.956-278.813c.012-.018.02-.038.032-.056.97-1.429 1.401-3.138 1.268-4.833zm-299.148 179.439c-1.61 1.036-2.818 2.744-3.251 4.626l-18.501 80.443-34.616-132.405 289.593-102.786s-233.221 150.12-233.225 150.122zm208.304-157.197-271.943 96.523-47.002-42.86zm-160.835 217.522-57.136 39.134 14.476-62.942 3.526-15.328 38.281 38.28zm49.227 28.01-80.753-80.754 247.962-159.608z"/></svg>