<svg fill="none" height="20" viewBox="0 0 20 20" width="20" xmlns="http://www.w3.org/2000/svg"><path clip-rule="evenodd" d="m18 10c0 4.4183-3.5817 8-8 8-4.41828 0-8-3.5817-8-8 0-4.41828 3.58172-8 8-8 4.4183 0 8 3.58172 8 8zm-6-3c0 1.10457-.8954 2-2 2-1.10457 0-2-.89543-2-2s.89543-2 2-2c1.1046 0 2 .89543 2 2zm-2.00007 4c-2.01754 0-3.75599 1.195-4.54619 2.9157 1.10029 1.2763 2.72891 2.0843 4.54624 2.0843 1.81732 0 3.44592-.8079 4.54622-2.0842-.7902-1.7208-2.5287-2.9158-4.54627-2.9158z" fill="#4a5568" fill-rule="evenodd"/></svg>